# This file uses centimeters as units for non-parametric coordinates.

mtllib pyramid.mtl
g default
v 0.000000 -0.353553 -0.707107
v -0.707107 -0.353553 -0.000000
v 0.353553 -0.353553 0.353553
v 0.000000 0.353553 0.000000
vt 0.500000 0.000000
vt 0.250000 0.250000
vt 0.625000 0.375000
vt 0.250000 0.500000
vt 0.375000 0.500000
vt 0.562500 0.500000
vt 0.750000 0.500000
vt 0.500000 1.000000
vn 0.000000 -1.000000 0.000000
vn 0.000000 -1.000000 0.000000
vn 0.000000 -1.000000 0.000000
vn -0.577350 0.577350 -0.577350
vn -0.577350 0.577350 -0.577350
vn -0.577350 0.577350 -0.577350
vn -0.301511 0.301511 0.904534
vn -0.301511 0.301511 0.904534
vn -0.301511 0.301511 0.904534
vn 0.904534 0.301511 -0.301511
vn 0.904534 0.301511 -0.301511
vn 0.904534 0.301511 -0.301511
s off
g pPyramid1
usemtl initialShadingGroup
f 1/1/1 3/3/2 2/2/3
f 1/4/4 2/5/5 4/8/6
f 2/5/7 3/6/8 4/8/9
f 3/6/10 1/7/11 4/8/12
