# This file uses centimeters as units for non-parametric coordinates.

mtllib asdf.mtl
g default
v 0.000000 0.000000 -0.326525
v -0.326525 0.000000 -0.000000
v -0.000000 0.000000 0.326525
v 0.326525 0.000000 0.000000
v 0.000000 0.282779 -0.489788
v -0.489788 0.282779 -0.000000
v -0.000000 0.282779 0.489788
v 0.489788 0.282779 0.000000
v 0.000000 0.282779 -0.816313
v -0.816313 0.282779 -0.000000
v -0.000000 0.282779 0.816313
v 0.816313 0.282779 0.000000
v 0.000000 -0.000000 -0.979575
v -0.979575 -0.000000 -0.000000
v -0.000000 -0.000000 0.979575
v 0.979575 -0.000000 0.000000
v 0.000000 -0.282779 -0.816312
v -0.816312 -0.282779 -0.000000
v -0.000000 -0.282779 0.816312
v 0.816312 -0.282779 0.000000
v 0.000000 -0.282779 -0.489787
v -0.489787 -0.282779 -0.000000
v -0.000000 -0.282779 0.489787
v 0.489787 -0.282779 0.000000
vt 0.000000 1.000000
vt 0.250000 1.000000
vt 0.500000 1.000000
vt 0.750000 1.000000
vt 1.000000 1.000000
vt 0.000000 0.833333
vt 0.250000 0.833333
vt 0.500000 0.833333
vt 0.750000 0.833333
vt 1.000000 0.833333
vt 0.000000 0.666667
vt 0.250000 0.666667
vt 0.500000 0.666667
vt 0.750000 0.666667
vt 1.000000 0.666667
vt 0.000000 0.500000
vt 0.250000 0.500000
vt 0.500000 0.500000
vt 0.750000 0.500000
vt 1.000000 0.500000
vt 0.000000 0.333333
vt 0.250000 0.333333
vt 0.500000 0.333333
vt 0.750000 0.333333
vt 1.000000 0.333333
vt 0.000000 0.166667
vt 0.250000 0.166667
vt 0.500000 0.166667
vt 0.750000 0.166667
vt 1.000000 0.166667
vt 0.000000 -0.000000
vt 0.250000 -0.000000
vt 0.500000 -0.000000
vt 0.750000 -0.000000
vt 1.000000 -0.000000
vn 0.654654 0.377964 0.654654
vn 0.654654 0.377964 0.654654
vn 0.654654 0.377964 0.654654
vn 0.654654 0.377964 0.654654
vn 0.654654 0.377965 -0.654654
vn 0.654654 0.377965 -0.654654
vn 0.654654 0.377965 -0.654654
vn 0.654654 0.377965 -0.654654
vn -0.654654 0.377964 -0.654654
vn -0.654654 0.377964 -0.654654
vn -0.654654 0.377964 -0.654654
vn -0.654654 0.377964 -0.654654
vn -0.654654 0.377965 0.654654
vn -0.654654 0.377964 0.654654
vn -0.654654 0.377964 0.654654
vn -0.654654 0.377965 0.654654
vn -0.000000 1.000000 0.000000
vn -0.000000 1.000000 -0.000000
vn -0.000000 1.000000 -0.000000
vn -0.000000 1.000000 -0.000000
vn -0.000000 1.000000 -0.000000
vn -0.000000 1.000000 -0.000000
vn -0.000000 1.000000 -0.000000
vn -0.000000 1.000000 0.000000
vn 0.000000 1.000000 0.000000
vn 0.000000 1.000000 0.000000
vn 0.000000 1.000000 0.000000
vn 0.000000 1.000000 0.000000
vn 0.000000 1.000000 -0.000000
vn 0.000000 1.000000 -0.000000
vn 0.000000 1.000000 -0.000000
vn 0.000000 1.000000 0.000000
vn -0.654654 0.377964 -0.654654
vn -0.654654 0.377964 -0.654654
vn -0.654654 0.377964 -0.654654
vn -0.654654 0.377964 -0.654654
vn -0.654654 0.377965 0.654654
vn -0.654654 0.377965 0.654654
vn -0.654654 0.377965 0.654654
vn -0.654654 0.377964 0.654654
vn 0.654654 0.377964 0.654654
vn 0.654654 0.377964 0.654654
vn 0.654654 0.377964 0.654654
vn 0.654654 0.377964 0.654654
vn 0.654654 0.377965 -0.654654
vn 0.654654 0.377965 -0.654654
vn 0.654654 0.377965 -0.654654
vn 0.654654 0.377965 -0.654654
vn -0.654653 -0.377965 -0.654654
vn -0.654654 -0.377965 -0.654654
vn -0.654654 -0.377965 -0.654654
vn -0.654654 -0.377965 -0.654654
vn -0.654654 -0.377965 0.654654
vn -0.654654 -0.377965 0.654654
vn -0.654654 -0.377965 0.654654
vn -0.654654 -0.377965 0.654654
vn 0.654654 -0.377965 0.654654
vn 0.654654 -0.377964 0.654654
vn 0.654654 -0.377964 0.654654
vn 0.654654 -0.377964 0.654654
vn 0.654654 -0.377965 -0.654654
vn 0.654654 -0.377965 -0.654654
vn 0.654654 -0.377965 -0.654654
vn 0.654654 -0.377965 -0.654654
vn 0.000000 -1.000000 0.000000
vn 0.000000 -1.000000 0.000000
vn 0.000000 -1.000000 0.000000
vn 0.000000 -1.000000 0.000000
vn 0.000000 -1.000000 -0.000000
vn 0.000000 -1.000000 -0.000000
vn 0.000000 -1.000000 -0.000000
vn 0.000000 -1.000000 -0.000000
vn -0.000000 -1.000000 -0.000000
vn -0.000000 -1.000000 -0.000000
vn -0.000000 -1.000000 -0.000000
vn -0.000000 -1.000000 -0.000000
vn -0.000000 -1.000000 0.000000
vn -0.000000 -1.000000 0.000000
vn -0.000000 -1.000000 0.000000
vn -0.000000 -1.000000 0.000000
vn 0.654654 -0.377964 0.654654
vn 0.654654 -0.377964 0.654654
vn 0.654654 -0.377964 0.654654
vn 0.654654 -0.377964 0.654654
vn 0.654654 -0.377964 -0.654654
vn 0.654654 -0.377964 -0.654654
vn 0.654654 -0.377964 -0.654654
vn 0.654654 -0.377964 -0.654654
vn -0.654654 -0.377964 -0.654654
vn -0.654654 -0.377964 -0.654654
vn -0.654654 -0.377964 -0.654654
vn -0.654654 -0.377964 -0.654654
vn -0.654654 -0.377964 0.654654
vn -0.654654 -0.377964 0.654654
vn -0.654654 -0.377964 0.654654
vn -0.654654 -0.377964 0.654654
s 1
g pTorus1
usemtl initialShadingGroup
f 2/2/1 1/1/2 6/7/3
f 6/7/3 1/1/2 5/6/4
s 2
f 3/3/5 2/2/6 7/8/7
f 7/8/7 2/2/6 6/7/8
s 3
f 4/4/9 3/3/10 8/9/11
f 8/9/11 3/3/10 7/8/12
s 4
f 1/5/13 4/4/14 5/10/15
f 5/10/15 4/4/14 8/9/16
s 5
f 6/7/17 5/6/18 10/12/19
f 10/12/19 5/6/18 9/11/20
s 6
f 7/8/21 6/7/22 11/13/23
f 11/13/23 6/7/22 10/12/24
s 7
f 8/9/25 7/8/26 12/14/27
f 12/14/27 7/8/26 11/13/28
s 8
f 5/10/29 8/9/30 9/15/31
f 9/15/31 8/9/30 12/14/32
s 9
f 10/12/33 9/11/34 14/17/35
f 14/17/35 9/11/34 13/16/36
s 10
f 11/13/37 10/12/38 15/18/39
f 15/18/39 10/12/38 14/17/40
s 11
f 12/14/41 11/13/42 16/19/43
f 16/19/43 11/13/42 15/18/44
s 12
f 9/15/45 12/14/46 13/20/47
f 13/20/47 12/14/46 16/19/48
s 13
f 14/17/49 13/16/50 18/22/51
f 18/22/51 13/16/50 17/21/52
s 14
f 15/18/53 14/17/54 19/23/55
f 19/23/55 14/17/54 18/22/56
s 15
f 16/19/57 15/18/58 20/24/59
f 20/24/59 15/18/58 19/23/60
s 16
f 13/20/61 16/19/62 17/25/63
f 17/25/63 16/19/62 20/24/64
s 17
f 18/22/65 17/21/66 22/27/67
f 22/27/67 17/21/66 21/26/68
s 18
f 19/23/69 18/22/70 23/28/71
f 23/28/71 18/22/70 22/27/72
s 19
f 20/24/73 19/23/74 24/29/75
f 24/29/75 19/23/74 23/28/76
s 20
f 17/25/77 20/24/78 21/30/79
f 21/30/79 20/24/78 24/29/80
s 21
f 22/27/81 21/26/82 2/32/83
f 2/32/83 21/26/82 1/31/84
s 22
f 23/28/85 22/27/86 3/33/87
f 3/33/87 22/27/86 2/32/88
s 23
f 24/29/89 23/28/90 4/34/91
f 4/34/91 23/28/90 3/33/92
s 24
f 21/30/93 24/29/94 1/35/95
f 1/35/95 24/29/94 4/34/96
