# This file uses centimeters as units for non-parametric coordinates.

mtllib pyramid2.mtl
g default
v 0.000000 0.000000 -0.707107
v -0.707107 0.000000 -0.000000
v -0.000000 0.000000 0.707107
v 0.707107 0.000000 0.000000
v 0.000000 0.707107 0.000000
v -0.821616 0.475413 -0.000000
vt 0.500000 0.000000
vt 0.250000 0.250000
vt 0.500000 0.500000
vt 0.750000 0.250000
vt 0.250000 0.500000
vt 0.375000 0.500000
vt 0.500000 0.500000
vt 0.625000 0.500000
vt 0.750000 0.500000
vt 0.500000 1.000000
vt 0.437500 0.750000
vn 0.000000 -1.000000 0.000000
vn 0.000000 -1.000000 0.000000
vn 0.000000 -1.000000 0.000000
vn -0.195552 0.693455 -0.693455
vn -0.195552 0.693455 -0.693455
vn -0.195552 0.693455 -0.693455
vn -0.195552 0.693455 0.693455
vn -0.195552 0.693455 0.693455
vn -0.195552 0.693455 0.693455
vn 0.577350 0.577350 0.577350
vn 0.577350 0.577350 0.577350
vn 0.577350 0.577350 0.577350
vn 0.577350 0.577350 -0.577350
vn 0.577350 0.577350 -0.577350
vn 0.577350 0.577350 -0.577350
vn 0.000000 -1.000000 0.000000
vn 0.000000 -1.000000 0.000000
vn 0.000000 -1.000000 0.000000
vn -0.697069 -0.167897 -0.697069
vn -0.697069 -0.167897 -0.697069
vn -0.697069 -0.167897 -0.697069
vn -0.697069 -0.167898 0.697069
vn -0.697069 -0.167898 0.697069
vn -0.697069 -0.167898 0.697069
s off
g pPyramid2
usemtl initialShadingGroup
f 4/4/1 2/2/2 1/1/3
f 1/5/4 6/11/5 5/10/6
f 6/11/7 3/7/8 5/10/9
f 3/7/10 4/8/11 5/10/12
f 4/8/13 1/9/14 5/10/15
f 2/2/16 4/4/17 3/3/18
f 6/11/19 1/5/20 2/6/21
f 3/7/22 6/11/23 2/6/24
