# This file uses centimeters as units for non-parametric coordinates.

mtllib weirdshape.mtl
g default
v 1.442104 -0.218060 0.000000
v 0.274479 -0.274479 0.000000
v 0.984763 -0.521693 0.000000
v 0.274479 0.274479 0.000000
v 1.138474 0.239283 0.000000
v 0.823436 0.274479 0.000000
v 0.092669 1.029233 0.000000
v 0.274479 0.274479 0.000000
v -0.193803 0.560951 0.000000
v 0.823436 0.823436 0.000000
v -0.381535 0.812896 0.000000
v 0.274479 -0.274479 0.000000
v -0.274479 0.274479 0.000000
v 0.274479 0.274479 0.000000
v -0.919952 0.705841 0.000000
vt 0.000000 0.000000
vt 1.000000 0.000000
vt 0.000000 1.000000
vt 1.000000 0.000000
vt 1.000000 1.000000
vt 0.000000 0.000000
vt 1.000000 0.000000
vt 0.000000 1.000000
vt 1.000000 0.000000
vt 1.000000 1.000000
vt 0.000000 0.000000
vt 1.000000 0.000000
vt 0.000000 1.000000
vt 1.000000 0.000000
vt 1.000000 1.000000
vn 0.000000 0.000000 1.000000
vn 0.000000 0.000000 1.000000
vn 0.000000 0.000000 1.000000
vn 0.000000 0.000000 -1.000000
vn 0.000000 0.000000 -1.000000
vn 0.000000 0.000000 -1.000000
vn 0.000000 0.000000 1.000000
vn 0.000000 0.000000 1.000000
vn 0.000000 0.000000 1.000000
vn 0.000000 0.000000 1.000000
vn 0.000000 0.000000 1.000000
vn 0.000000 0.000000 1.000000
vn 0.000000 0.000000 1.000000
vn 0.000000 0.000000 1.000000
vn 0.000000 0.000000 1.000000
vn 0.000000 0.000000 1.000000
vn 0.000000 0.000000 1.000000
vn 0.000000 0.000000 1.000000
s off
g w:polySurface4
usemtl w:initialShadingGroup
f 1/1/1 5/2/2 3/3/3
f 3/3/4 2/4/5 4/5/6
f 6/6/7 10/7/8 8/8/9
f 8/8/10 7/9/11 9/10/12
f 11/11/13 15/12/14 13/13/15
f 13/13/16 12/14/17 14/15/18
g default
v 9.779939 -1.310258 0.000000
v 0.000001 -3.356933 -7.335199
v 0.000001 0.944252 -7.525429
v 2.254512 -1.310258 -7.525429
v -4.582541 -3.746032 -2.683121
v -4.187303 -3.746032 2.683120
v -4.573371 1.293026 2.603284
v -4.573370 1.293026 -2.603284
v 0.000000 6.215170 -2.254510
v 0.000000 6.215170 2.254510
v 2.254510 6.215170 0.000000
v -2.444699 -3.356933 7.335199
v 2.254510 -1.310258 7.525429
v -2.889287 2.280257 7.525429
v -2.013483 -7.838423 2.444740
v 0.000000 -7.451102 -2.444741
v 2.444740 -7.451102 0.000000
v -9.251696 0.078180 0.000000
vt 0.466965 0.250000
vt 0.500000 0.187506
vt 0.500000 0.216965
vt 0.625000 0.500000
vt 0.573967 0.704133
vt 0.528816 0.884738
vt 0.517839 0.928642
vt 0.551033 0.795867
vt 0.750000 0.250000
vt 0.562494 0.250000
vt 0.557631 0.057631
vt 0.500000 0.062494
vt 0.557631 0.442369
vt 0.500000 0.312494
vt 0.500000 0.437506
vt 0.528816 0.500000
vt 0.500000 0.615262
vt 0.500000 0.884738
vt 0.307631 0.615262
vt 0.375000 0.633093
vt 0.442369 0.884738
vt 0.392962 0.318587
vt 0.441547 0.633093
vt 0.392962 0.181413
vt 0.351571 0.148429
vt 0.465337 0.034663
vt 0.368009 0.250000
vt 0.428490 0.500000
vt 0.425936 0.703744
vt 0.482160 0.928642
vt 0.500000 0.043788
vt 0.359666 0.198448
vt 0.464321 0.928642
vt 0.481883 0.500000
vt 0.500000 0.571358
vt 0.301639 0.235092
vn 0.055934 -0.996866 -0.055934
vn 0.055934 -0.996866 -0.055934
vn 0.055934 -0.996866 -0.055934
vn 0.577350 0.577350 -0.577350
vn 0.577350 0.577350 -0.577350
vn 0.577350 0.577350 -0.577350
vn 0.577350 0.577350 -0.577350
vn 0.577350 0.577350 -0.577350
vn 0.577350 0.577350 -0.577350
vn 0.577350 0.577350 -0.577350
vn 0.577350 0.577350 -0.577350
vn 0.577350 0.577350 -0.577350
vn 0.540200 -0.645266 -0.540200
vn 0.540200 -0.645266 -0.540200
vn 0.540200 -0.645266 -0.540200
vn 0.540200 -0.645266 -0.540200
vn 0.540200 -0.645266 -0.540200
vn 0.540200 -0.645266 -0.540200
vn 0.540200 -0.645266 -0.540200
vn 0.540200 -0.645266 -0.540200
vn 0.540200 -0.645266 -0.540200
vn 0.540200 -0.645266 0.540200
vn 0.403549 -0.689141 0.601858
vn 0.464333 -0.680407 0.566958
vn 0.464333 -0.680407 0.566958
vn 0.403549 -0.689141 0.601858
vn 0.331378 -0.704812 0.627239
vn 0.403549 -0.689141 0.601858
vn 0.276434 -0.696268 0.662416
vn 0.331378 -0.704812 0.627239
vn 0.442602 0.634075 0.634075
vn 0.553382 0.520393 0.650353
vn 0.553382 0.520393 0.650353
vn 0.553382 0.520393 0.650353
vn 0.553382 0.520393 0.650353
vn 0.650073 0.393461 0.650073
vn -0.577350 0.577350 -0.577350
vn -0.577350 0.577350 -0.577350
vn -0.577350 0.577350 -0.577350
vn -0.820303 -0.455853 0.345401
vn -0.820303 -0.455853 0.345401
vn -0.820303 -0.455853 0.345401
vn -0.724097 0.680670 0.111224
vn -0.724097 0.680670 0.111224
vn -0.724097 0.680670 0.111224
vn -0.505944 -0.661391 -0.553700
vn -0.505944 -0.661391 -0.553700
vn -0.505944 -0.661391 -0.553700
vn -0.733315 -0.030040 -0.679225
vn -0.733315 -0.030040 -0.679225
vn -0.733315 -0.030040 -0.679225
vn -0.879715 -0.471066 0.064793
vn -0.879715 -0.471066 0.064793
vn -0.879715 -0.471066 0.064793
vn -0.939872 -0.066702 0.334950
vn -0.939872 -0.066702 0.334950
vn -0.939872 -0.066702 0.334950
vn -0.732585 0.680676 -0.000000
vn -0.732585 0.680676 -0.000000
vn -0.732585 0.680676 -0.000000
vn -0.044141 -0.044141 -0.998050
vn -0.044141 -0.044141 -0.998050
vn -0.044141 -0.044141 -0.998050
vn -0.617215 -0.785480 0.045460
vn -0.617215 -0.785480 0.045460
vn -0.617215 -0.785480 0.045460
vn 0.000000 1.000000 0.000000
vn 0.000000 1.000000 0.000000
vn 0.000000 1.000000 0.000000
vn -0.024904 -0.035678 0.999053
vn -0.024904 -0.035678 0.999053
vn -0.024904 -0.035678 0.999053
vn -0.930668 -0.085404 0.355758
vn -0.930668 -0.085404 0.355758
vn -0.930668 -0.085404 0.355758
vn -0.481546 -0.023013 0.876119
vn -0.481546 -0.023013 0.876119
vn -0.481546 -0.023013 0.876119
vn -0.712875 0.012407 -0.701182
vn -0.712875 0.012407 -0.701182
vn -0.712875 0.012407 -0.701182
vn -0.732585 0.680676 -0.000000
vn -0.732585 0.680676 -0.000000
vn -0.732585 0.680676 -0.000000
vn -0.251340 0.967899 -0.000000
vn -0.251340 0.967899 -0.000000
vn -0.251340 0.967899 -0.000000
vn -0.489105 0.014707 -0.872101
vn -0.489105 0.014707 -0.872101
vn -0.489105 0.014707 -0.872101
vn -0.589776 -0.748895 -0.302193
vn -0.589776 -0.748895 -0.302193
vn -0.589776 -0.748895 -0.302193
vn 0.577350 0.577350 0.577350
vn 0.577350 0.577350 0.577350
vn 0.577350 0.577350 0.577350
s off
g weirdshape:pPyramid1
usemtl weirdshape:initialShadingGroup
f 30/16/19 31/17/20 32/18/21
f 16/19/22 19/20/23 26/21/24
f 26/21/25 19/20/26 24/22/27
f 19/20/28 18/23/29 24/22/30
f 16/24/31 32/25/32 19/26/33
f 32/25/34 31/17/35 19/26/36
f 19/26/37 31/17/38 17/27/39
f 16/24/40 28/28/41 32/25/42
f 32/25/43 28/28/44 30/29/45
f 28/28/46 27/30/47 30/29/48
f 28/31/49 26/21/50 29/32/51
f 29/32/52 26/21/53 25/33/54
f 18/34/55 23/35/56 24/36/57
f 27/30/58 21/37/59 30/29/60
f 25/33/61 22/38/62 29/32/63
f 31/17/64 20/39/65 17/27/66
f 17/27/67 23/40/68 18/41/69
f 30/16/70 21/42/71 20/39/72
f 21/43/73 29/32/74 22/38/75
f 24/36/76 22/44/77 25/45/78
f 17/27/79 18/41/80 19/46/81
f 21/42/82 33/47/83 20/39/84
f 24/36/85 25/45/86 26/48/87
f 27/49/88 28/50/89 29/32/90
f 29/32/91 21/43/92 27/49/93
f 33/47/94 21/42/95 22/51/96
f 23/40/97 17/27/98 20/39/99
f 24/36/100 23/35/101 22/44/102
f 23/40/103 33/47/104 22/51/105
f 20/39/106 33/47/107 23/40/108
f 30/16/109 20/39/110 31/17/111
f 28/31/112 16/19/113 26/21/114
